<?xml version="1.0" encoding="UTF-8"?>
<svg id="Layer_2" data-name="Layer 2" xmlns="http://www.w3.org/2000/svg" viewBox="0 0 182.54 38.38">
  <defs>
    <style>
      .cls-1 {
        fill: #0e1a2a;
      }

      .cls-2 {
        fill: #40ba88;
      }
    </style>
  </defs>
  <g id="Layer_1-2" data-name="Layer 1">
    <g>
      <g>
        <path class="cls-2" d="M12.93,0c7.48,0,12.93,4.91,12.93,12.6s-5.45,12.6-12.93,12.6S0,20.28,0,12.6,5.45,0,12.93,0ZM12.93,20.32c4.5,0,7.45-3.25,7.45-7.72s-2.95-7.72-7.45-7.72-7.45,3.25-7.45,7.72,2.95,7.72,7.45,7.72Z"/>
        <path class="cls-2" d="M28.81,8.13h4.88v2.24h.07c.68-1.29,2.34-2.64,4.81-2.64,2.3,0,4.2.95,5.08,2.95,1.18-2.1,2.78-2.95,5.21-2.95,4.47,0,5.82,3.15,5.82,7.14v9.72h-5.08v-9.58c0-1.52-.58-2.81-2.23-2.81-2.34,0-3.08,1.66-3.08,3.69v8.7h-5.08v-8.7c0-1.22.07-3.69-2.27-3.69-2.64,0-3.05,2.07-3.05,4.2v8.19h-5.08V8.13Z"/>
        <path class="cls-2" d="M58.26,8.13h4.88v2.24h.07c.68-1.29,2.34-2.64,4.81-2.64,5.15,0,6.09,3.39,6.09,7.79v9.07h-5.08v-8.06c0-1.9-.03-4.33-2.64-4.33s-3.05,2.07-3.05,4.2v8.19h-5.08V8.13Z"/>
        <path class="cls-2" d="M80.3,0c1.63,0,2.95,1.32,2.95,2.95s-1.32,2.95-2.95,2.95-2.95-1.32-2.95-2.95,1.32-2.95,2.95-2.95ZM77.76,8.13h5.08v16.46h-5.08V8.13Z"/>
        <path class="cls-2" d="M93.88,18.18h-8.33v-4.06h8.33v4.06Z"/>
        <path class="cls-2" d="M97.36.61h5.28v19.1h9.79v4.88h-15.07V.61Z"/>
        <path class="cls-2" d="M130.27,21.74c-1.63,2.07-4.3,3.25-6.94,3.25-5.08,0-9.14-3.39-9.14-8.63s4.06-8.63,9.14-8.63c4.74,0,7.72,3.39,7.72,8.63v1.59h-11.78c.41,1.93,1.86,3.18,3.83,3.18,1.66,0,2.78-.85,3.62-2l3.56,2.61ZM125.97,14.49c.03-1.69-1.29-3.12-3.11-3.12-2.24,0-3.45,1.52-3.59,3.12h6.7Z"/>
        <path class="cls-2" d="M144.45,22.52h-.07c-1.12,1.76-3.15,2.47-5.21,2.47-3.08,0-5.86-1.76-5.86-5.08,0-5.69,6.91-5.79,11.14-5.79,0-1.79-1.49-2.95-3.25-2.95-1.66,0-3.05.75-4.13,1.96l-2.71-2.78c1.86-1.76,4.57-2.64,7.25-2.64,5.93,0,7.52,3.01,7.52,8.5v8.36h-4.67v-2.07ZM143.2,17.37c-1.56,0-5.01.14-5.01,2.37,0,1.22,1.29,1.79,2.4,1.79,2,0,3.86-1.05,3.86-3.08v-1.08h-1.25Z"/>
        <path class="cls-2" d="M152.3,8.13h5.08v2.64h.07c1.08-2,2.5-3.05,4.74-3.05.58,0,1.22.03,1.69.17v4.64c-.71-.2-1.42-.34-2.17-.34-3.86,0-4.33,2.23-4.33,5.52v6.87h-5.08V8.13Z"/>
        <path class="cls-2" d="M166.69,8.13h4.88v2.24h.07c.68-1.29,2.34-2.64,4.81-2.64,5.15,0,6.09,3.39,6.09,7.79v9.07h-5.08v-8.06c0-1.9-.03-4.33-2.64-4.33s-3.05,2.07-3.05,4.2v8.19h-5.08V8.13Z"/>
      </g>
      <g>
        <g>
          <path class="cls-1" d="M12.45,37.3v-5.72h2.47c.64,0,1.13.13,1.48.38.35.26.53.62.53,1.09,0,.31-.07.57-.22.78-.14.21-.34.37-.59.48-.25.11-.52.16-.81.16l.14-.2c.37,0,.68.06.94.17.26.11.47.28.62.5.15.22.22.49.22.82,0,.49-.18.86-.54,1.13s-.89.4-1.61.4h-2.63ZM13.05,36.8h2.02c.5,0,.88-.09,1.15-.26.27-.17.4-.44.4-.82s-.13-.64-.4-.81c-.27-.17-.65-.26-1.15-.26h-2.08v-.5h1.89c.46,0,.81-.09,1.07-.26.25-.17.38-.43.38-.78s-.13-.61-.38-.78c-.25-.17-.61-.26-1.07-.26h-1.82v4.72Z"/>
          <path class="cls-1" d="M19.85,37.3v-2.12l.14.38-2.43-3.97h.64l2.13,3.49h-.34l2.13-3.49h.6l-2.43,3.97.14-.38v2.12h-.6Z"/>
          <path class="cls-1" d="M39.87,37.3l2.61-5.72h.6l2.61,5.72h-.64l-2.4-5.37h.24l-2.4,5.37h-.63ZM40.9,35.77l.18-.49h3.32l.18.49h-3.68Z"/>
          <path class="cls-1" d="M47.25,37.3h-.6v-5.72h3.92v.52h-3.32v5.19ZM47.18,34.35h3.02v.52h-3.02v-.52Z"/>
          <path class="cls-1" d="M52.42,37.3h-.6v-5.72h3.92v.52h-3.32v5.19ZM52.35,34.35h3.02v.52h-3.02v-.52Z"/>
          <path class="cls-1" d="M56.98,37.3v-5.72h.6v5.19h3.2v.52h-3.81Z"/>
          <path class="cls-1" d="M60.88,37.3l2.61-5.72h.6l2.61,5.72h-.64l-2.4-5.37h.24l-2.4,5.37h-.63ZM61.91,35.77l.18-.49h3.32l.18.49h-3.68Z"/>
          <path class="cls-1" d="M68.48,37.3v-5.19h-2.01v-.52h4.62v.52h-2.01v5.19h-.6Z"/>
          <path class="cls-1" d="M74.24,37.35c-.73,0-1.3-.21-1.72-.63s-.63-1.04-.63-1.86v-3.28h.6v3.25c0,.68.15,1.17.46,1.49s.74.48,1.29.48.99-.16,1.3-.48.46-.82.46-1.49v-3.25h.59v3.28c0,.82-.21,1.44-.63,1.86-.42.42-.99.63-1.72.63Z"/>
          <path class="cls-1" d="M79.98,37.35c-.42,0-.83-.07-1.22-.21-.39-.14-.69-.32-.9-.53l.24-.47c.2.2.47.36.81.49.34.13.7.2,1.07.2s.65-.04.88-.13c.23-.09.39-.21.5-.36.11-.15.16-.32.16-.51,0-.22-.06-.4-.19-.54-.13-.14-.3-.24-.5-.32s-.44-.15-.69-.21c-.25-.06-.5-.12-.75-.19-.25-.07-.48-.16-.69-.27s-.38-.27-.51-.45-.19-.43-.19-.74c0-.28.07-.54.22-.78.15-.24.38-.43.69-.57.31-.14.71-.22,1.19-.22.32,0,.64.04.96.13.32.09.59.21.82.37l-.2.48c-.25-.16-.51-.28-.78-.36-.28-.08-.54-.11-.8-.11-.34,0-.63.05-.85.14-.22.09-.39.22-.49.37-.11.16-.16.33-.16.53,0,.22.06.4.19.54.13.14.3.24.51.32.21.08.44.14.69.2.25.06.5.13.75.2.25.07.48.16.69.27.21.11.38.26.51.44.13.18.19.43.19.73,0,.28-.08.53-.23.77-.15.24-.39.43-.7.57-.31.14-.71.22-1.2.22Z"/>
          <path class="cls-1" d="M88.05,37.35c-.43,0-.83-.07-1.19-.22-.37-.14-.68-.35-.95-.61-.27-.26-.48-.57-.63-.92s-.22-.74-.22-1.16.07-.81.22-1.16c.15-.35.36-.66.63-.92.27-.26.59-.46.95-.61.37-.14.76-.22,1.19-.22s.8.07,1.17.21c.37.14.67.35.92.62l-.38.38c-.23-.24-.49-.41-.78-.52-.28-.11-.59-.16-.92-.16-.34,0-.66.06-.96.18s-.55.28-.77.5-.39.47-.51.75c-.12.29-.18.6-.18.94s.06.66.18.94c.12.29.29.54.51.75.22.22.47.38.77.5.29.12.61.18.96.18s.63-.06.92-.16c.28-.11.54-.28.78-.52l.38.38c-.25.28-.56.49-.92.63-.36.14-.76.21-1.18.21Z"/>
          <path class="cls-1" d="M93.82,37.35c-.43,0-.83-.07-1.2-.22-.37-.14-.69-.35-.95-.61-.27-.26-.48-.57-.63-.92-.15-.35-.22-.74-.22-1.16s.07-.8.22-1.16c.15-.35.36-.66.63-.92.27-.26.59-.47.95-.61.37-.14.77-.22,1.2-.22s.83.07,1.19.22c.36.14.68.35.95.61.27.26.48.57.63.92.15.35.22.74.22,1.16s-.07.81-.22,1.16-.36.66-.63.92c-.27.26-.59.46-.95.61-.37.14-.76.22-1.19.22ZM93.82,36.81c.34,0,.66-.06.95-.18.29-.12.54-.28.76-.5.22-.21.38-.47.5-.75.12-.29.18-.6.18-.94s-.06-.66-.18-.94c-.12-.29-.29-.54-.5-.75s-.47-.38-.76-.5c-.29-.12-.61-.18-.95-.18s-.66.06-.95.18-.55.28-.76.5-.38.47-.51.75c-.12.29-.18.6-.18.94s.06.65.18.94c.12.29.29.54.51.75.22.22.47.38.76.5.29.12.61.18.95.18Z"/>
          <path class="cls-1" d="M98.17,37.3v-5.72h.5l3.95,4.97h-.26v-4.97h.6v5.72h-.5l-3.94-4.97h.26v4.97h-.6Z"/>
          <path class="cls-1" d="M106.39,37.35c-.42,0-.83-.07-1.22-.21-.39-.14-.69-.32-.9-.53l.24-.47c.2.2.47.36.81.49.34.13.7.2,1.07.2s.65-.04.88-.13c.23-.09.39-.21.5-.36.11-.15.16-.32.16-.51,0-.22-.06-.4-.19-.54-.13-.14-.3-.24-.5-.32s-.44-.15-.69-.21c-.25-.06-.5-.12-.75-.19-.25-.07-.48-.16-.69-.27s-.38-.27-.51-.45-.19-.43-.19-.74c0-.28.07-.54.22-.78.15-.24.38-.43.69-.57.31-.14.71-.22,1.19-.22.32,0,.64.04.96.13.32.09.59.21.82.37l-.2.48c-.25-.16-.51-.28-.78-.36-.28-.08-.54-.11-.8-.11-.34,0-.63.05-.85.14-.22.09-.39.22-.49.37-.11.16-.16.33-.16.53,0,.22.06.4.19.54.13.14.3.24.51.32.21.08.44.14.69.2.25.06.5.13.75.2.25.07.48.16.69.27.21.11.38.26.51.44.13.18.19.43.19.73,0,.28-.08.53-.23.77-.15.24-.39.43-.7.57-.31.14-.71.22-1.2.22Z"/>
          <path class="cls-1" d="M112.14,37.35c-.73,0-1.3-.21-1.72-.63s-.63-1.04-.63-1.86v-3.28h.6v3.25c0,.68.15,1.17.46,1.49s.74.48,1.29.48.99-.16,1.3-.48.46-.82.46-1.49v-3.25h.59v3.28c0,.82-.21,1.44-.63,1.86-.42.42-.99.63-1.72.63Z"/>
          <path class="cls-1" d="M116.31,37.3v-5.72h.6v5.19h3.2v.52h-3.81Z"/>
          <path class="cls-1" d="M121.7,37.3v-5.19h-2.01v-.52h4.62v.52h-2.01v5.19h-.6Z"/>
          <path class="cls-1" d="M125.27,37.3v-5.72h.6v5.72h-.6Z"/>
          <path class="cls-1" d="M127.74,37.3v-5.72h.5l3.95,4.97h-.26v-4.97h.6v5.72h-.5l-3.94-4.97h.26v4.97h-.6Z"/>
          <path class="cls-1" d="M136.89,37.35c-.44,0-.84-.07-1.2-.22-.37-.14-.69-.35-.95-.61-.27-.26-.48-.57-.63-.92s-.22-.74-.22-1.16.07-.81.22-1.16c.15-.35.36-.66.63-.92.27-.26.59-.46.96-.61.37-.14.77-.22,1.2-.22s.83.07,1.2.2c.36.14.67.34.93.62l-.38.38c-.24-.24-.5-.41-.79-.51-.29-.1-.6-.16-.93-.16-.35,0-.68.06-.98.18-.3.12-.56.28-.78.5s-.39.47-.51.75c-.12.29-.18.6-.18.94s.06.65.18.94c.12.29.29.54.51.75.22.22.48.38.78.5.3.12.62.18.97.18.33,0,.64-.05.93-.15s.56-.26.8-.5l.34.46c-.27.24-.59.42-.95.54-.37.12-.75.18-1.14.18ZM138.41,36.55v-2.11h.58v2.18l-.58-.07Z"/>
          <path class="cls-1" d="M145.34,37.35c-.44,0-.84-.07-1.2-.22-.37-.14-.69-.35-.95-.61-.27-.26-.48-.57-.63-.92s-.22-.74-.22-1.16.07-.81.22-1.16c.15-.35.36-.66.63-.92.27-.26.59-.46.96-.61.37-.14.77-.22,1.2-.22s.83.07,1.2.2c.36.14.67.34.93.62l-.38.38c-.24-.24-.5-.41-.79-.51-.29-.1-.6-.16-.93-.16-.35,0-.68.06-.98.18-.3.12-.56.28-.78.5s-.39.47-.51.75c-.12.29-.18.6-.18.94s.06.65.18.94c.12.29.29.54.51.75.22.22.48.38.78.5.3.12.62.18.97.18.33,0,.64-.05.93-.15s.56-.26.8-.5l.34.46c-.27.24-.59.42-.95.54-.37.12-.75.18-1.14.18ZM146.86,36.55v-2.11h.58v2.18l-.58-.07Z"/>
          <path class="cls-1" d="M149.15,37.3v-5.72h2.14c.48,0,.9.08,1.25.23s.62.38.8.67c.19.29.28.64.28,1.06s-.09.75-.28,1.04c-.19.29-.46.51-.8.67-.35.16-.77.23-1.25.23h-1.8l.27-.28v2.09h-.6ZM149.75,35.26l-.27-.29h1.79c.57,0,1.01-.13,1.3-.38.3-.25.45-.6.45-1.05s-.15-.81-.45-1.06c-.3-.25-.73-.38-1.3-.38h-1.79l.27-.29v3.44ZM153.05,37.3l-1.47-2.07h.65l1.48,2.07h-.66Z"/>
          <path class="cls-1" d="M157.55,37.35c-.43,0-.83-.07-1.2-.22-.37-.14-.69-.35-.95-.61-.27-.26-.48-.57-.63-.92-.15-.35-.22-.74-.22-1.16s.07-.8.22-1.16c.15-.35.36-.66.63-.92.27-.26.59-.47.95-.61.37-.14.77-.22,1.2-.22s.83.07,1.19.22c.36.14.68.35.95.61.27.26.48.57.63.92.15.35.22.74.22,1.16s-.07.81-.22,1.16-.36.66-.63.92c-.27.26-.59.46-.95.61-.37.14-.76.22-1.19.22ZM157.55,36.81c.34,0,.66-.06.95-.18.29-.12.54-.28.76-.5.22-.21.38-.47.5-.75.12-.29.18-.6.18-.94s-.06-.66-.18-.94c-.12-.29-.29-.54-.5-.75s-.47-.38-.76-.5c-.29-.12-.61-.18-.95-.18s-.66.06-.95.18-.55.28-.76.5-.38.47-.51.75c-.12.29-.18.6-.18.94s.06.65.18.94c.12.29.29.54.51.75.22.22.47.38.76.5.29.12.61.18.95.18Z"/>
          <path class="cls-1" d="M164.21,37.35c-.73,0-1.3-.21-1.72-.63s-.63-1.04-.63-1.86v-3.28h.6v3.25c0,.68.15,1.17.46,1.49s.74.48,1.29.48.99-.16,1.3-.48.46-.82.46-1.49v-3.25h.59v3.28c0,.82-.21,1.44-.63,1.86-.42.42-.99.63-1.72.63Z"/>
          <path class="cls-1" d="M168.37,37.3v-5.72h2.14c.48,0,.9.08,1.25.23s.62.38.8.67c.19.29.28.64.28,1.06s-.09.75-.28,1.04c-.19.29-.46.52-.8.67-.35.16-.77.24-1.25.24h-1.8l.27-.29v2.09h-.6ZM168.98,35.26l-.27-.29h1.79c.57,0,1.01-.12,1.3-.37.3-.25.45-.6.45-1.05s-.15-.81-.45-1.06c-.3-.25-.73-.38-1.3-.38h-1.79l.27-.29v3.44Z"/>
        </g>
        <g>
          <path class="cls-1" d="M38.22,38.38c-.86-1.23-1.72-2.46-2.58-3.69-.74-.16-2.13-.34-3.73.14-2.73.81-4.1,2.92-4.44,3.5.55-.46,2.38-1.85,5.11-1.93,3.07-.09,5.14,1.56,5.64,1.98h0Z"/>
          <path class="cls-1" d="M32.46,32.66c.57-.19,1.09-.27,1.5-.3-.44-.63-.88-1.27-1.31-1.9-.77,1.13-1.55,2.27-2.32,3.4.43-.37,1.14-.88,2.13-1.2h0Z"/>
        </g>
      </g>
    </g>
  </g>
</svg>