<?xml version="1.0" encoding="UTF-8"?>
<svg id="Layer_2" data-name="Layer 2" xmlns="http://www.w3.org/2000/svg" viewBox="0 0 182.54 37.64">
  <defs>
    <style>
      .cls-1 {
        fill: #0e1a2a;
      }

      .cls-2 {
        fill: #40ba88;
      }
    </style>
  </defs>
  <g id="Layer_1-2" data-name="Layer 1">
    <g>
      <g>
        <path class="cls-2" d="M12.93,0c7.48,0,12.93,4.91,12.93,12.6s-5.45,12.6-12.93,12.6S0,20.28,0,12.6,5.45,0,12.93,0ZM12.93,20.32c4.5,0,7.45-3.25,7.45-7.72s-2.95-7.72-7.45-7.72-7.45,3.25-7.45,7.72,2.95,7.72,7.45,7.72Z"/>
        <path class="cls-2" d="M28.81,8.13h4.88v2.24h.07c.68-1.29,2.34-2.64,4.81-2.64,2.3,0,4.2.95,5.08,2.95,1.18-2.1,2.78-2.95,5.21-2.95,4.47,0,5.82,3.15,5.82,7.14v9.72h-5.08v-9.58c0-1.52-.58-2.81-2.23-2.81-2.34,0-3.08,1.66-3.08,3.69v8.7h-5.08v-8.7c0-1.22.07-3.69-2.27-3.69-2.64,0-3.05,2.07-3.05,4.2v8.19h-5.08V8.13Z"/>
        <path class="cls-2" d="M58.26,8.13h4.88v2.24h.07c.68-1.29,2.34-2.64,4.81-2.64,5.15,0,6.09,3.39,6.09,7.79v9.07h-5.08v-8.06c0-1.9-.03-4.33-2.64-4.33s-3.05,2.07-3.05,4.2v8.19h-5.08V8.13Z"/>
        <path class="cls-2" d="M80.3,0c1.63,0,2.95,1.32,2.95,2.95s-1.32,2.95-2.95,2.95-2.95-1.32-2.95-2.95,1.32-2.95,2.95-2.95ZM77.76,8.13h5.08v16.46h-5.08V8.13Z"/>
        <path class="cls-2" d="M93.88,18.18h-8.33v-4.06h8.33v4.06Z"/>
        <path class="cls-2" d="M97.36.61h5.28v19.1h9.79v4.88h-15.07V.61Z"/>
        <path class="cls-2" d="M130.27,21.74c-1.63,2.07-4.3,3.25-6.94,3.25-5.08,0-9.14-3.39-9.14-8.63s4.06-8.63,9.14-8.63c4.74,0,7.72,3.39,7.72,8.63v1.59h-11.78c.41,1.93,1.86,3.18,3.83,3.18,1.66,0,2.78-.85,3.62-2l3.56,2.61ZM125.97,14.49c.03-1.69-1.29-3.12-3.11-3.12-2.24,0-3.45,1.52-3.59,3.12h6.7Z"/>
        <path class="cls-2" d="M144.45,22.52h-.07c-1.12,1.76-3.15,2.47-5.21,2.47-3.08,0-5.86-1.76-5.86-5.08,0-5.69,6.91-5.79,11.14-5.79,0-1.79-1.49-2.95-3.25-2.95-1.66,0-3.05.75-4.13,1.96l-2.71-2.78c1.86-1.76,4.57-2.64,7.25-2.64,5.93,0,7.52,3.01,7.52,8.5v8.36h-4.67v-2.07ZM143.2,17.37c-1.56,0-5.01.14-5.01,2.37,0,1.22,1.29,1.79,2.4,1.79,2,0,3.86-1.05,3.86-3.08v-1.08h-1.25Z"/>
        <path class="cls-2" d="M152.3,8.13h5.08v2.64h.07c1.08-2,2.5-3.05,4.74-3.05.58,0,1.22.03,1.69.17v4.64c-.71-.2-1.42-.34-2.17-.34-3.86,0-4.33,2.23-4.33,5.52v6.87h-5.08V8.13Z"/>
        <path class="cls-2" d="M166.69,8.13h4.88v2.24h.07c.68-1.29,2.34-2.64,4.81-2.64,5.15,0,6.09,3.39,6.09,7.79v9.07h-5.08v-8.06c0-1.9-.03-4.33-2.64-4.33s-3.05,2.07-3.05,4.2v8.19h-5.08V8.13Z"/>
      </g>
      <g>
        <path class="cls-1" d="M12.36,37.58v-6.27h2.7c.7,0,1.24.14,1.62.42.39.28.58.68.58,1.19,0,.34-.08.63-.24.86-.16.23-.37.41-.64.53-.27.12-.57.18-.89.18l.15-.21c.4,0,.74.06,1.03.18.29.12.51.3.68.55.16.24.24.54.24.9,0,.53-.2.94-.59,1.24s-.98.44-1.77.44h-2.88ZM13.02,37.04h2.21c.55,0,.97-.09,1.26-.28.29-.19.44-.49.44-.9s-.15-.7-.44-.89c-.29-.19-.71-.28-1.26-.28h-2.28v-.55h2.07c.5,0,.89-.1,1.17-.29.28-.19.42-.47.42-.85s-.14-.67-.42-.86c-.28-.19-.67-.28-1.17-.28h-2v5.17Z"/>
        <path class="cls-1" d="M20.47,37.58v-2.33l.15.41-2.66-4.35h.71l2.34,3.82h-.38l2.34-3.82h.66l-2.66,4.35.15-.41v2.33h-.65Z"/>
        <path class="cls-1" d="M26,37.58l2.87-6.27h.65l2.87,6.27h-.7l-2.63-5.88h.27l-2.63,5.88h-.69ZM27.13,35.91l.2-.54h3.64l.2.54h-4.04Z"/>
        <path class="cls-1" d="M34.09,37.58h-.66v-6.27h4.3v.57h-3.64v5.69ZM34.01,34.35h3.31v.57h-3.31v-.57Z"/>
        <path class="cls-1" d="M39.75,37.58h-.66v-6.27h4.3v.57h-3.64v5.69ZM39.68,34.35h3.31v.57h-3.31v-.57Z"/>
        <path class="cls-1" d="M44.76,37.58v-6.27h.66v5.69h3.51v.57h-4.17Z"/>
        <path class="cls-1" d="M49.03,37.58l2.87-6.27h.65l2.87,6.27h-.7l-2.63-5.88h.27l-2.63,5.88h-.69ZM50.16,35.91l.2-.54h3.64l.2.54h-4.04Z"/>
        <path class="cls-1" d="M57.36,37.58v-5.69h-2.2v-.57h5.07v.57h-2.2v5.69h-.66Z"/>
        <path class="cls-1" d="M63.68,37.64c-.8,0-1.43-.23-1.89-.69s-.69-1.14-.69-2.04v-3.59h.66v3.56c0,.74.17,1.29.5,1.64s.81.53,1.41.53,1.09-.18,1.42-.53.5-.9.5-1.64v-3.56h.64v3.59c0,.9-.23,1.58-.69,2.04-.46.46-1.08.69-1.88.69Z"/>
        <path class="cls-1" d="M69.97,37.64c-.47,0-.91-.08-1.34-.23-.43-.15-.76-.35-.99-.59l.26-.51c.22.22.52.4.89.54.37.15.77.22,1.18.22s.72-.05.96-.15c.25-.1.43-.23.55-.4.12-.17.17-.35.17-.56,0-.24-.07-.44-.21-.59-.14-.15-.32-.27-.55-.35s-.48-.16-.75-.23c-.27-.07-.55-.14-.82-.21-.27-.08-.53-.17-.76-.3s-.42-.29-.56-.5-.21-.48-.21-.81c0-.31.08-.6.25-.85.16-.26.42-.47.76-.63.34-.16.78-.24,1.31-.24.35,0,.7.05,1.05.15.35.1.64.23.89.41l-.22.53c-.27-.18-.55-.31-.86-.39-.3-.08-.59-.13-.87-.13-.38,0-.69.05-.93.15-.25.1-.43.24-.54.41-.12.17-.17.36-.17.58,0,.25.07.44.21.59.14.15.33.27.56.35.23.08.48.16.76.22.27.07.55.14.82.22.27.08.52.18.75.3.23.12.41.28.56.49.14.2.21.47.21.8,0,.3-.08.59-.25.85-.17.26-.42.47-.77.63-.34.16-.78.24-1.32.24Z"/>
        <path class="cls-1" d="M78.82,37.64c-.47,0-.91-.08-1.31-.24-.4-.16-.75-.38-1.04-.67-.29-.29-.52-.62-.69-1.01s-.25-.81-.25-1.27.08-.88.25-1.27c.16-.39.39-.73.69-1.01.3-.29.64-.51,1.04-.67.4-.16.84-.24,1.31-.24s.88.08,1.28.23c.4.15.74.38,1.01.68l-.42.42c-.26-.26-.54-.45-.85-.57-.31-.12-.64-.17-1-.17-.38,0-.73.06-1.05.19s-.6.31-.84.55-.43.51-.56.82c-.13.31-.2.66-.2,1.03s.07.72.2,1.03c.13.31.32.59.56.82.24.24.52.42.84.55.32.13.67.19,1.05.19s.69-.06,1-.18c.31-.12.59-.31.85-.57l.42.42c-.27.3-.61.53-1.01.69-.4.16-.83.23-1.29.23Z"/>
        <path class="cls-1" d="M85.14,37.64c-.47,0-.91-.08-1.31-.24-.4-.16-.75-.38-1.05-.67-.3-.29-.53-.63-.69-1.01-.16-.38-.25-.81-.25-1.27s.08-.88.25-1.27c.16-.38.39-.72.69-1.01.3-.29.64-.51,1.04-.67.4-.16.84-.24,1.32-.24s.91.08,1.31.24c.4.16.75.38,1.04.67.3.29.52.62.69,1.01.16.39.25.81.25,1.27s-.08.88-.25,1.27-.39.73-.69,1.01c-.3.29-.64.51-1.04.67-.4.16-.84.24-1.31.24ZM85.14,37.05c.38,0,.72-.06,1.04-.19.32-.13.6-.31.83-.55.24-.23.42-.51.55-.82.13-.31.2-.66.2-1.03s-.07-.72-.2-1.03c-.13-.31-.31-.59-.55-.82s-.51-.42-.83-.55c-.32-.13-.67-.19-1.04-.19s-.72.06-1.05.19-.6.31-.84.55-.42.51-.55.82c-.13.31-.2.66-.2,1.03s.07.71.2,1.03c.13.32.32.59.55.83.24.24.52.42.84.55.32.13.67.19,1.05.19Z"/>
        <path class="cls-1" d="M89.91,37.58v-6.27h.55l4.32,5.44h-.29v-5.44h.65v6.27h-.55l-4.32-5.44h.29v5.44h-.66Z"/>
        <path class="cls-1" d="M98.92,37.64c-.47,0-.91-.08-1.34-.23-.43-.15-.76-.35-.99-.59l.26-.51c.22.22.52.4.89.54.37.15.77.22,1.18.22s.72-.05.96-.15c.25-.1.43-.23.55-.4.12-.17.17-.35.17-.56,0-.24-.07-.44-.21-.59-.14-.15-.32-.27-.55-.35s-.48-.16-.75-.23c-.27-.07-.55-.14-.82-.21-.27-.08-.53-.17-.76-.3s-.42-.29-.56-.5-.21-.48-.21-.81c0-.31.08-.6.25-.85.16-.26.42-.47.76-.63.34-.16.78-.24,1.31-.24.35,0,.7.05,1.05.15.35.1.64.23.89.41l-.22.53c-.27-.18-.55-.31-.86-.39-.3-.08-.59-.13-.87-.13-.38,0-.69.05-.93.15-.25.1-.43.24-.54.41-.12.17-.17.36-.17.58,0,.25.07.44.21.59.14.15.33.27.56.35.23.08.48.16.76.22.27.07.55.14.82.22.27.08.52.18.75.3.23.12.41.28.56.49.14.2.21.47.21.8,0,.3-.08.59-.25.85-.17.26-.42.47-.77.63-.34.16-.78.24-1.32.24Z"/>
        <path class="cls-1" d="M105.22,37.64c-.8,0-1.43-.23-1.89-.69s-.69-1.14-.69-2.04v-3.59h.66v3.56c0,.74.17,1.29.5,1.64s.81.53,1.41.53,1.09-.18,1.42-.53.5-.9.5-1.64v-3.56h.64v3.59c0,.9-.23,1.58-.69,2.04-.46.46-1.08.69-1.88.69Z"/>
        <path class="cls-1" d="M109.79,37.58v-6.27h.66v5.69h3.51v.57h-4.17Z"/>
        <path class="cls-1" d="M115.69,37.58v-5.69h-2.2v-.57h5.07v.57h-2.2v5.69h-.66Z"/>
        <path class="cls-1" d="M119.62,37.58v-6.27h.66v6.27h-.66Z"/>
        <path class="cls-1" d="M122.32,37.58v-6.27h.55l4.32,5.44h-.29v-5.44h.65v6.27h-.55l-4.32-5.44h.29v5.44h-.66Z"/>
        <path class="cls-1" d="M132.35,37.64c-.48,0-.92-.08-1.32-.24-.4-.16-.75-.38-1.05-.67-.3-.29-.53-.62-.69-1.01s-.25-.81-.25-1.27.08-.88.25-1.27c.16-.39.4-.73.69-1.01.3-.29.65-.51,1.05-.67.4-.16.84-.24,1.32-.24s.91.07,1.31.22c.4.15.74.38,1.02.68l-.41.42c-.26-.26-.55-.45-.87-.56-.32-.11-.66-.17-1.02-.17-.39,0-.74.06-1.07.19-.33.13-.61.31-.85.55s-.43.51-.56.82c-.13.31-.2.66-.2,1.03s.07.71.2,1.03c.13.32.32.59.56.83.24.24.52.42.85.55.33.13.68.19,1.06.19.36,0,.7-.05,1.02-.16s.61-.29.88-.55l.38.5c-.3.26-.65.46-1.05.6-.4.13-.82.2-1.25.2ZM134.01,36.76v-2.31h.64v2.39l-.64-.08Z"/>
        <path class="cls-1" d="M141.61,37.64c-.48,0-.92-.08-1.32-.24-.4-.16-.75-.38-1.05-.67-.3-.29-.53-.62-.69-1.01s-.25-.81-.25-1.27.08-.88.25-1.27c.16-.39.4-.73.69-1.01.3-.29.65-.51,1.05-.67.4-.16.84-.24,1.32-.24s.91.07,1.31.22c.4.15.74.38,1.02.68l-.41.42c-.26-.26-.55-.45-.87-.56-.32-.11-.66-.17-1.02-.17-.39,0-.74.06-1.07.19-.33.13-.61.31-.85.55s-.43.51-.56.82c-.13.31-.2.66-.2,1.03s.07.71.2,1.03c.13.32.32.59.56.83.24.24.52.42.85.55.33.13.68.19,1.06.19.36,0,.7-.05,1.02-.16s.61-.29.88-.55l.38.5c-.3.26-.65.46-1.05.6-.4.13-.82.2-1.25.2ZM143.28,36.76v-2.31h.64v2.39l-.64-.08Z"/>
        <path class="cls-1" d="M145.79,37.58v-6.27h2.35c.53,0,.99.08,1.37.25s.68.42.88.73c.21.32.31.71.31,1.16s-.1.82-.31,1.14c-.21.32-.5.56-.88.73-.38.17-.84.26-1.37.26h-1.98l.3-.3v2.29h-.66ZM146.45,35.34l-.3-.31h1.96c.63,0,1.1-.14,1.43-.41.33-.27.49-.66.49-1.15s-.16-.89-.49-1.16c-.33-.27-.8-.41-1.43-.41h-1.96l.3-.31v3.77ZM150.07,37.58l-1.61-2.27h.72l1.62,2.27h-.73Z"/>
        <path class="cls-1" d="M155,37.64c-.47,0-.91-.08-1.31-.24-.4-.16-.75-.38-1.05-.67-.3-.29-.53-.63-.69-1.01-.16-.38-.25-.81-.25-1.27s.08-.88.25-1.27c.16-.38.39-.72.69-1.01.3-.29.64-.51,1.04-.67.4-.16.84-.24,1.32-.24s.91.08,1.31.24c.4.16.75.38,1.04.67.3.29.52.62.69,1.01.16.39.25.81.25,1.27s-.08.88-.25,1.27-.39.73-.69,1.01c-.3.29-.64.51-1.04.67-.4.16-.84.24-1.31.24ZM155,37.05c.38,0,.72-.06,1.04-.19.32-.13.6-.31.83-.55.24-.23.42-.51.55-.82.13-.31.2-.66.2-1.03s-.07-.72-.2-1.03c-.13-.31-.31-.59-.55-.82s-.51-.42-.83-.55c-.32-.13-.67-.19-1.04-.19s-.72.06-1.05.19-.6.31-.84.55-.42.51-.55.82c-.13.31-.2.66-.2,1.03s.07.71.2,1.03c.13.32.32.59.55.83.24.24.52.42.84.55.32.13.67.19,1.05.19Z"/>
        <path class="cls-1" d="M162.3,37.64c-.8,0-1.43-.23-1.89-.69s-.69-1.14-.69-2.04v-3.59h.66v3.56c0,.74.17,1.29.5,1.64s.81.53,1.41.53,1.09-.18,1.42-.53.5-.9.5-1.64v-3.56h.64v3.59c0,.9-.23,1.58-.69,2.04-.46.46-1.08.69-1.88.69Z"/>
        <path class="cls-1" d="M166.86,37.58v-6.27h2.35c.53,0,.99.08,1.37.25s.68.42.88.73c.21.32.31.71.31,1.16s-.1.82-.31,1.14c-.21.32-.5.57-.88.74-.38.17-.84.26-1.37.26h-1.98l.3-.31v2.29h-.66ZM167.52,35.34l-.3-.32h1.96c.63,0,1.1-.14,1.43-.41.33-.27.49-.66.49-1.15s-.16-.89-.49-1.16c-.33-.27-.8-.41-1.43-.41h-1.96l.3-.31v3.77Z"/>
      </g>
    </g>
  </g>
</svg>