<?xml version="1.0" encoding="UTF-8"?>
<svg id="Layer_2" data-name="Layer 2" xmlns="http://www.w3.org/2000/svg" viewBox="0 0 182.54 25.19">
  <defs>
    <style>
      .cls-1 {
        fill: #40ba88;
      }
    </style>
  </defs>
  <g id="Layer_1-2" data-name="Layer 1">
    <g>
      <path class="cls-1" d="M12.93,0c7.48,0,12.93,4.91,12.93,12.6s-5.45,12.6-12.93,12.6S0,20.28,0,12.6,5.45,0,12.93,0ZM12.93,20.32c4.5,0,7.45-3.25,7.45-7.72s-2.95-7.72-7.45-7.72-7.45,3.25-7.45,7.72,2.95,7.72,7.45,7.72Z"/>
      <path class="cls-1" d="M28.81,8.13h4.88v2.24h.07c.68-1.29,2.34-2.64,4.81-2.64,2.3,0,4.2.95,5.08,2.95,1.18-2.1,2.78-2.95,5.21-2.95,4.47,0,5.82,3.15,5.82,7.14v9.72h-5.08v-9.58c0-1.52-.58-2.81-2.23-2.81-2.34,0-3.08,1.66-3.08,3.69v8.7h-5.08v-8.7c0-1.22.07-3.69-2.27-3.69-2.64,0-3.05,2.07-3.05,4.2v8.19h-5.08V8.13Z"/>
      <path class="cls-1" d="M58.26,8.13h4.88v2.24h.07c.68-1.29,2.34-2.64,4.81-2.64,5.15,0,6.09,3.39,6.09,7.79v9.07h-5.08v-8.06c0-1.9-.03-4.33-2.64-4.33s-3.05,2.07-3.05,4.2v8.19h-5.08V8.13Z"/>
      <path class="cls-1" d="M80.3,0c1.63,0,2.95,1.32,2.95,2.95s-1.32,2.95-2.95,2.95-2.95-1.32-2.95-2.95,1.32-2.95,2.95-2.95ZM77.76,8.13h5.08v16.46h-5.08V8.13Z"/>
      <path class="cls-1" d="M93.88,18.18h-8.33v-4.06h8.33v4.06Z"/>
      <path class="cls-1" d="M97.36.61h5.28v19.1h9.79v4.88h-15.07V.61Z"/>
      <path class="cls-1" d="M130.27,21.74c-1.63,2.07-4.3,3.25-6.94,3.25-5.08,0-9.14-3.39-9.14-8.63s4.06-8.63,9.14-8.63c4.74,0,7.72,3.39,7.72,8.63v1.59h-11.78c.41,1.93,1.86,3.18,3.83,3.18,1.66,0,2.78-.85,3.62-2l3.56,2.61ZM125.97,14.49c.03-1.69-1.29-3.12-3.11-3.12-2.24,0-3.45,1.52-3.59,3.12h6.7Z"/>
      <path class="cls-1" d="M144.45,22.52h-.07c-1.12,1.76-3.15,2.47-5.21,2.47-3.08,0-5.86-1.76-5.86-5.08,0-5.69,6.91-5.79,11.14-5.79,0-1.79-1.49-2.95-3.25-2.95-1.66,0-3.05.75-4.13,1.96l-2.71-2.78c1.86-1.76,4.57-2.64,7.25-2.64,5.93,0,7.52,3.01,7.52,8.5v8.36h-4.67v-2.07ZM143.2,17.37c-1.56,0-5.01.14-5.01,2.37,0,1.22,1.29,1.79,2.4,1.79,2,0,3.86-1.05,3.86-3.08v-1.08h-1.25Z"/>
      <path class="cls-1" d="M152.3,8.13h5.08v2.64h.07c1.08-2,2.5-3.05,4.74-3.05.58,0,1.22.03,1.69.17v4.64c-.71-.2-1.42-.34-2.17-.34-3.86,0-4.33,2.23-4.33,5.52v6.87h-5.08V8.13Z"/>
      <path class="cls-1" d="M166.69,8.13h4.88v2.24h.07c.68-1.29,2.34-2.64,4.81-2.64,5.15,0,6.09,3.39,6.09,7.79v9.07h-5.08v-8.06c0-1.9-.03-4.33-2.64-4.33s-3.05,2.07-3.05,4.2v8.19h-5.08V8.13Z"/>
    </g>
  </g>
</svg>